<?xml version="1.0" ?><svg data-name="Layer 1" id="Layer_1" viewBox="0 0 32 32" xmlns="http://www.w3.org/2000/svg"><defs><style>.cls-1{fill:#ba63c6;}</style></defs><title/><path class="cls-1" d="M13,2a2,2,0,0,0-2,2V28a2,2,0,0,0,4,0V4A2,2,0,0,0,13,2Z"/><path class="cls-1" d="M5,14a2,2,0,0,0-2,2V28a2,2,0,0,0,4,0V16A2,2,0,0,0,5,14Z"/><path class="cls-1" d="M21,8a2,2,0,0,0-2,2V28a2,2,0,0,0,4,0V10A2,2,0,0,0,21,8Z"/><path class="cls-1" d="M29,21a2,2,0,0,0-2,2v5a2,2,0,0,0,4,0V23A2,2,0,0,0,29,21Z"/></svg>